<svg xmlns="http://www.w3.org/2000/svg"><defs><symbol id="icon-menu" viewBox="0 0 16 12" fill="none"><g clip-path="url('#clip0_1_507')" fill="#fff"><path d="M15 0H1a1 1 0 1 0 0 2h14a1 1 0 1 0 0-2ZM15 5H1a1 1 0 0 0 0 2h14a1 1 0 1 0 0-2ZM15 10H1a1 1 0 1 0 0 2h14a1 1 0 1 0 0-2Z"/></g><defs><clipPath id="clip0_1_507"><path fill="#fff" d="M0 0h16v12H0z"/></clipPath></defs></symbol><symbol id="arrow" viewBox="0 0 14 8" fill="none"><path opacity=".8" d="M7 6.5 13.044.662a.576.576 0 0 1 .792 0 .524.524 0 0 1 0 .762L7 8 .164 1.424a.524.524 0 0 1 0-.762.576.576 0 0 1 .792 0L7 6.5Z" fill="#fff"/></symbol></defs></svg>