<svg xmlns="http://www.w3.org/2000/svg">
  <defs>
    <symbol id="icon-menu" viewBox="0 0 16 12" fill="none">
    <g clip-path="url(#clip0_1_507)">
      <path d="M15 0H1C0.447715 0 0 0.447715 0 1C0 1.55228 0.447715 2 1 2H15C15.5523 2 16 1.55228 16 1C16 0.447715 15.5523 0 15 0Z" fill="white"/>
      <path d="M15 5H1C0.447715 5 0 5.44772 0 6C0 6.55228 0.447715 7 1 7H15C15.5523 7 16 6.55228 16 6C16 5.44772 15.5523 5 15 5Z" fill="white"/>
      <path d="M15 10H1C0.447715 10 0 10.4477 0 11C0 11.5523 0.447715 12 1 12H15C15.5523 12 16 11.5523 16 11C16 10.4477 15.5523 10 15 10Z" fill="white"/>
    </g>
    <defs>
    <clipPath id="clip0_1_507">
    <rect width="16" height="12" fill="white"/>
    </clipPath>
    </defs>
  </symbol>
  <symbol id="arrow" viewBox="0 0 14 8" fill="none">
    <path opacity="0.8" d="M7 6.49988L13.044 0.662174C13.2627 0.451801 13.6173 0.451801 13.836 0.662174C14.0547 0.872547 14.0547 1.21363 13.836 1.424L7 7.99988L0.16402 1.424C-0.0546734 1.21363 -0.0546734 0.872547 0.16402 0.662174C0.382714 0.451801 0.737286 0.451801 0.95598 0.662174L7 6.49988Z" fill="white"/>
  </symbol>
  </defs>
</svg>
